# xmcd
# 
# Track frame offsets:
#     150
#     49075
#     70305
#     88815
#     119770
#     141082
#     158070
#     188057
#     212665
# 
# Disc length: 3233
# 
# Revision: 1
# Processed by: cddbd v1.5.2PL0 Copyright (c) Steve Scherf et al.
# Submitted via: fre:ac v1.0.31
# 
DISCID=830c9f09
DTITLE=The Marshall Tucker Band - Live On Long Island 04-18-80 Disc 1
DYEAR=2006
DGENRE=Rock/Pop
TTITLE0=Running Like The Wind
TTITLE1=Last Of The Singing Cowboys
TTITLE2=It Takes Time
TTITLE3=Cattle Drive
TTITLE4=See You One More Time
TTITLE5=Sing My Blues
TTITLE6=Take The Highway
TTITLE7=Heard It In A Love Song
TTITLE8=Ramblin'
EXTD=
EXTT0=
EXTT1=
EXTT2=
EXTT3=
EXTT4=
EXTT5=
EXTT6=
EXTT7=
EXTT8=
PLAYORDER=
